<?xml version="1.0" standalone="no"?>
<!DOCTYPE svg PUBLIC "-//W3C//DTD SVG 20010904//EN"
 "http://www.w3.org/TR/2001/REC-SVG-20010904/DTD/svg10.dtd">
<svg version="1.0" xmlns="http://www.w3.org/2000/svg"
 width="2760.000000pt" height="2760.000000pt" viewBox="0 0 2760.000000 2760.000000"
 preserveAspectRatio="xMidYMid meet">
<metadata>
Created by potrace 1.14, written by Peter Selinger 2001-2017
</metadata>
<g transform="translate(0.000000,2760.000000) scale(0.100000,-0.100000)"
fill="#000000" stroke="none">
<path d="M15905 19361 c-38 -9 -103 -32 -144 -51 -67 -31 -82 -44 -188 -164
-65 -74 -126 -154 -139 -183 -54 -114 -54 -109 -54 -1369 l0 -1164 -395 0
-395 0 -4 -22 c-96 -490 -280 -845 -605 -1168 -184 -183 -334 -291 -561 -405
-284 -142 -562 -212 -887 -222 -359 -12 -682 55 -998 206 -602 288 -1043 846
-1177 1491 l-24 115 -1067 3 -1067 2 0 -2365 0 -2366 35 -15 c30 -12 407 -14
2798 -14 l2763 0 74 25 c219 74 481 74 700 0 73 -25 76 -25 442 -25 l368 0 0
-125 0 -125 -186 0 c-212 0 -199 12 -111 -96 88 -109 172 -298 201 -450 l12
-69 40 -1 39 0 5 -235 c6 -254 16 -312 70 -418 68 -136 175 -243 305 -306 145
-70 -11 -65 2085 -65 2096 0 1940 -5 2085 65 136 66 242 175 311 320 60 125
64 168 64 741 l0 514 -130 0 -130 0 0 -220 0 -220 -2200 0 -2200 0 0 3605 0
3605 2200 0 2200 0 0 -710 0 -710 130 0 130 0 0 999 c0 836 -2 1011 -15 1069
-44 211 -170 374 -360 468 -162 79 -13 74 -2093 73 -1724 0 -1862 -2 -1927
-18z m-527 -5233 l-3 -123 -3310 0 c-3294 0 -3310 0 -3337 20 -15 11 -35 38
-43 60 -21 54 -4 110 44 142 l34 23 3309 0 3309 0 -3 -122z m2603 -3402 c115
-27 219 -117 259 -224 31 -81 25 -204 -11 -282 -35 -73 -100 -136 -178 -173
-55 -26 -77 -31 -145 -31 -148 0 -264 71 -328 202 -30 60 -33 75 -33 157 0 76
4 99 26 145 48 103 133 176 239 204 69 19 101 19 171 2z"/>
<path d="M17834 10655 c-137 -31 -239 -175 -220 -312 34 -250 334 -347 500
-162 130 144 86 370 -87 453 -62 30 -124 37 -193 21z"/>
<path d="M12270 18659 c-343 -36 -678 -166 -952 -372 -104 -77 -262 -229 -341
-327 -213 -264 -361 -607 -408 -950 -17 -122 -17 -378 0 -500 112 -810 716
-1456 1514 -1620 399 -81 834 -28 1202 149 662 317 1085 988 1085 1721 0 738
-424 1407 -1095 1726 -307 145 -667 207 -1005 173z m1164 -1140 c35 -27 36
-86 4 -116 -13 -11 -230 -177 -483 -368 -380 -287 -464 -346 -485 -342 -32 6
-1079 513 -1102 534 -29 26 -24 87 8 112 44 35 34 38 374 -127 721 -348 713
-345 734 -332 11 7 120 88 241 180 121 91 313 237 428 323 131 100 216 157
231 157 13 0 35 -9 50 -21z"/>
<path d="M6013 14773 c-19 -43 -110 -249 -203 -458 -92 -209 -249 -565 -349
-792 l-181 -412 0 -331 0 -331 452 1 c507 2 483 5 521 -73 21 -42 17 -82 -13
-119 -10 -13 -227 -150 -482 -303 l-464 -280 735 -5 c689 -5 738 -6 763 -23
27 -19 58 -72 58 -101 0 -35 -30 -86 -62 -106 -32 -20 -48 -20 -770 -20 l-738
0 0 -310 0 -310 745 0 745 0 4 23 c50 261 144 447 311 613 204 203 470 314
749 314 l106 0 0 1540 c0 847 0 1543 0 1548 0 4 -425 8 -946 10 l-945 2 -36
-77z m1357 -1053 l0 -610 -715 0 c-393 0 -715 4 -715 9 0 4 66 170 146 367 80
197 181 447 224 554 43 107 87 216 99 243 l20 47 471 0 470 0 0 -610z"/>
<path d="M5280 12079 l0 -121 33 20 c17 11 102 61 187 112 85 51 159 97 165
101 5 5 -78 9 -188 9 l-197 0 0 -121z"/>
<path d="M7695 11545 c-98 -18 -203 -56 -293 -107 -90 -51 -238 -192 -297
-283 -197 -303 -189 -708 19 -999 50 -70 160 -178 226 -223 285 -193 660 -202
963 -22 84 50 226 187 282 273 121 187 171 437 127 646 -40 192 -113 330 -247
465 -209 210 -496 302 -780 250z m284 -390 c119 -31 232 -114 296 -215 104
-164 101 -388 -6 -549 -203 -304 -654 -296 -848 14 -128 203 -84 489 97 645
53 44 149 95 208 109 61 14 193 12 253 -4z"/>
<path d="M7753 10962 c-220 -79 -282 -341 -119 -507 117 -120 293 -126 419
-14 69 60 102 135 102 229 0 88 -22 145 -80 208 -78 87 -215 122 -322 84z"/>
<path d="M14057 11544 c-287 -52 -545 -261 -658 -533 -117 -282 -81 -608 96
-856 49 -68 159 -177 225 -222 72 -48 162 -91 257 -120 79 -24 103 -27 238
-27 122 1 165 5 230 23 470 127 754 608 635 1076 -27 107 -106 265 -174 347
-209 252 -529 370 -849 312z m328 -399 c287 -100 418 -432 281 -709 -80 -161
-259 -269 -446 -268 -374 2 -615 385 -453 722 60 125 182 228 314 265 71 20
235 14 304 -10z"/>
<path d="M14135 10966 c-64 -20 -99 -42 -138 -85 -65 -72 -82 -115 -82 -211 0
-73 4 -92 27 -135 32 -60 87 -114 148 -146 62 -32 184 -33 251 -2 139 63 215
219 174 359 -50 172 -220 271 -380 220z"/>
<path d="M8657 11397 c151 -193 222 -339 256 -523 l13 -69 2107 -3 c1159 -1
2107 -1 2107 0 0 2 9 44 19 93 39 190 114 335 259 508 14 16 -100 17 -2382 17
l-2398 0 19 -23z"/>
<path d="M10403 9738 c-5 -7 -117 -332 -248 -723 -131 -390 -240 -716 -243
-723 -3 -10 34 -12 179 -10 l182 3 37 110 37 110 273 0 274 0 33 -104 c18 -58
36 -108 41 -113 4 -4 87 -5 184 -1 l177 6 -29 81 c-16 45 -124 358 -241 696
-116 338 -217 630 -225 648 l-13 32 -204 0 c-152 0 -207 -3 -214 -12z m302
-652 l83 -256 -169 0 c-93 0 -169 2 -169 5 0 5 136 444 156 504 2 8 7 11 10 8
3 -3 43 -121 89 -261z"/>
<path d="M12168 9500 c3 -157 0 -250 -6 -250 -5 0 -15 7 -22 16 -45 53 -166
94 -281 94 -384 0 -618 -438 -437 -819 38 -79 140 -186 213 -224 88 -44 159
-60 249 -54 102 6 169 29 235 78 l51 39 0 -45 0 -45 155 0 155 0 0 730 0 730
-157 0 -158 0 3 -250z m-133 -459 c105 -47 159 -187 121 -315 -20 -67 -57
-110 -121 -141 -48 -24 -64 -27 -128 -23 -98 4 -156 39 -201 118 -26 47 -31
64 -31 130 0 61 5 85 25 124 61 119 204 165 335 107z"/>
<path d="M15178 9595 c-75 -24 -141 -46 -147 -49 -7 -5 -11 -45 -11 -102 l0
-94 -80 0 -81 0 3 -152 3 -151 78 2 77 2 1 -38 c0 -21 4 -139 8 -263 6 -212 8
-228 32 -280 33 -69 69 -106 139 -139 51 -24 65 -26 205 -26 l150 0 0 140 0
140 -65 3 c-85 3 -106 8 -130 32 -19 19 -20 34 -20 225 l0 205 105 0 105 0 0
150 0 150 -105 0 -104 0 -3 142 c-2 84 -7 142 -13 144 -5 1 -72 -17 -147 -41z"/>
<path d="M16816 9369 c-145 -36 -285 -175 -342 -339 -130 -372 138 -773 500
-748 85 6 170 37 231 83 l44 34 3 -42 3 -42 149 -3 c82 -1 154 2 159 7 5 5 6
219 1 525 l-7 516 -153 0 -154 0 0 -45 c0 -51 -7 -55 -39 -21 -12 13 -50 37
-84 52 -54 24 -76 29 -167 31 -58 1 -122 -2 -144 -8z m297 -304 c54 -25 104
-82 123 -138 25 -74 15 -173 -22 -234 -78 -126 -265 -151 -378 -52 -56 50 -79
104 -79 195 -1 119 58 205 163 239 55 18 144 13 193 -10z"/>
<path d="M13065 9358 c-137 -26 -273 -133 -339 -268 -84 -173 -87 -366 -6
-536 38 -79 139 -189 207 -226 57 -32 183 -68 234 -68 88 0 238 56 278 104 21
25 30 19 33 -25 l3 -41 155 1 c85 1 155 3 156 4 1 1 -1 235 -4 520 l-5 517
-153 0 -154 0 0 -46 0 -46 -37 30 c-102 80 -227 107 -368 80z m274 -314 c144
-72 177 -284 62 -407 -83 -91 -245 -99 -342 -18 -108 89 -113 285 -10 385 73
71 193 88 290 40z"/>
<path d="M14240 9354 c-116 -31 -204 -105 -240 -201 -18 -47 -21 -73 -18 -139
9 -166 89 -237 354 -314 127 -37 154 -52 154 -84 0 -85 -190 -87 -255 -2 -14
18 -25 38 -25 44 0 7 -3 12 -6 12 -3 0 -66 -34 -140 -76 l-134 -76 22 -40 c29
-50 103 -120 159 -149 188 -96 470 -71 605 53 75 69 89 105 89 228 0 121 -14
159 -78 222 -51 49 -115 78 -267 123 -137 40 -166 58 -156 99 5 19 17 28 46
37 55 17 109 -1 149 -47 l31 -35 127 69 c70 38 129 74 130 79 6 18 -92 116
-148 150 -30 18 -81 39 -114 48 -74 19 -212 18 -285 -1z"/>
<path d="M16235 9345 c-61 -25 -155 -110 -155 -141 0 -8 -4 -14 -10 -14 -6 0
-10 33 -10 80 l0 80 -155 0 -155 0 0 -519 c0 -332 4 -521 10 -523 5 -1 77 -2
160 0 l150 3 0 268 c0 266 0 267 25 318 41 81 119 123 233 123 l52 0 0 175 0
175 -42 0 c-24 0 -70 -11 -103 -25z"/>
</g>
</svg>
